# xmcd
#
# Track frame offsets: 
#        150
#        30668
#        56936
#        80530
#        114628
#        136515
#        176345
#        208255
#        235594
#
# Disc length: 3647 seconds
#
# Revision: 1
# Processed by: cddbd v1.4PL0 Copyright (c) Steve Scherf et al.
# Submitted via: ExactAudioCopy v0.90b4
#
DISCID=730e3d09
DTITLE=Various Artist - Capricon
DYEAR=1998
DGENRE=New Age
TTITLE0=Earth Pilgrim
TTITLE1=Somewhere Before Time
TTITLE2=Into the Light
TTITLE3=Awakening the Seed Dreamer
TTITLE4=Prayer for the World
TTITLE5=Pathfinder
TTITLE6=Crystal Temple
TTITLE7=The Hooded Maiden
TTITLE8=Feel Free
EXTD=YEAR: 1998\nJonathan Cainer's Zodiac Series.
EXTT0=Medwyn Goodall
EXTT1=Mike Rowland (Mystic Angel)
EXTT2=Phil Thornton (Between Two Worlds)
EXTT3=Terry Oldfield (Australia)
EXTT4=Asha (Love is the Only Prayer)
EXTT5=Medwin Goodall (Earth Healer)
EXTT6=Runestone (Cristal Lord)
EXTT7=Llewellyn (Ghosts)
EXTT8=Pia (Benediction Moon)
PLAYORDER=
